<svg width="166" height="48" viewBox="0 0 166 48" fill="none" xmlns="http://www.w3.org/2000/svg">
<rect width="166" height="48" fill="white"/>
<rect width="166" height="48" stroke="black"/>
<rect x="9" y="10" width="28" height="28" rx="4" fill="#232323"/>
<mask id="path-3-outside-1_9_43" maskUnits="userSpaceOnUse" x="11" y="4" width="24" height="40" fill="black">
<rect fill="white" x="11" y="4" width="24" height="40"/>
<path d="M22.9755 13.1C23.8155 12.62 24.5475 12.56 25.1715 12.92C25.7955 13.28 26.1075 13.94 26.1075 14.9V32.9L30.7875 30.2V8.6L33.9195 6.8V32L26.1075 36.5C25.2915 36.98 24.5595 37.04 23.9115 36.68C23.2875 36.32 22.9755 35.66 22.9755 34.7V16.7L18.3315 19.4V41L15.1995 42.8V17.6L22.9755 13.1ZM33.9195 6.8L30.7875 8.6L27.6555 6.8L30.7875 5L33.9195 6.8ZM30.7875 8.6V30.2L27.6555 28.4V6.8L30.7875 8.6ZM30.7875 30.2L26.1075 32.9L22.9755 31.1L27.6555 28.4L30.7875 30.2ZM22.9755 16.7V34.7C22.9755 35.66 23.2875 36.32 23.9115 36.68L20.8155 34.88C20.1915 34.52 19.8795 33.86 19.8795 32.9V14.9L22.9755 16.7ZM25.1715 12.92C24.5475 12.56 23.8155 12.62 22.9755 13.1L15.1995 17.6L12.0675 15.8L19.8795 11.3C20.6955 10.82 21.4155 10.76 22.0395 11.12L25.1715 12.92ZM15.1995 17.6V42.8L12.0675 41V15.8L15.1995 17.6Z"/>
</mask>
<path d="M22.9755 13.1C23.8155 12.62 24.5475 12.56 25.1715 12.92C25.7955 13.28 26.1075 13.94 26.1075 14.9V32.9L30.7875 30.2V8.6L33.9195 6.8V32L26.1075 36.5C25.2915 36.98 24.5595 37.04 23.9115 36.68C23.2875 36.32 22.9755 35.66 22.9755 34.7V16.7L18.3315 19.4V41L15.1995 42.8V17.6L22.9755 13.1ZM33.9195 6.8L30.7875 8.6L27.6555 6.8L30.7875 5L33.9195 6.8ZM30.7875 8.6V30.2L27.6555 28.4V6.8L30.7875 8.6ZM30.7875 30.2L26.1075 32.9L22.9755 31.1L27.6555 28.4L30.7875 30.2ZM22.9755 16.7V34.7C22.9755 35.66 23.2875 36.32 23.9115 36.68L20.8155 34.88C20.1915 34.52 19.8795 33.86 19.8795 32.9V14.9L22.9755 16.7ZM25.1715 12.92C24.5475 12.56 23.8155 12.62 22.9755 13.1L15.1995 17.6L12.0675 15.8L19.8795 11.3C20.6955 10.82 21.4155 10.76 22.0395 11.12L25.1715 12.92ZM15.1995 17.6V42.8L12.0675 41V15.8L15.1995 17.6Z" fill="#EEEEEE"/>
<path d="M22.9755 13.1L22.7275 12.6659L22.7251 12.6672L22.9755 13.1ZM25.1715 12.92L24.9217 13.3531H24.9217L25.1715 12.92ZM26.1075 32.9H25.6075V33.7657L26.3574 33.3331L26.1075 32.9ZM30.7875 30.2L31.0374 30.6331L31.2875 30.4888V30.2H30.7875ZM30.7875 8.6L30.5384 8.16649L30.2875 8.31066V8.6H30.7875ZM33.9195 6.8H34.4195V5.93595L33.6704 6.36649L33.9195 6.8ZM33.9195 32L34.1691 32.4333L34.4195 32.289V32H33.9195ZM26.1075 36.5L25.8579 36.0667L25.854 36.069L26.1075 36.5ZM23.9115 36.68L23.6616 37.1131L23.6687 37.1171L23.9115 36.68ZM22.9755 16.7H23.4755V15.8309L22.7242 16.2677L22.9755 16.7ZM18.3315 19.4L18.0802 18.9677L17.8315 19.1123V19.4H18.3315ZM18.3315 41L18.5807 41.4335L18.8315 41.2893V41H18.3315ZM15.1995 42.8H14.6995V43.664L15.4487 43.2335L15.1995 42.8ZM15.1995 17.6L14.9491 17.1672L14.6995 17.3117V17.6H15.1995ZM33.9195 6.8L34.1687 7.23351L34.923 6.8L34.1687 6.36649L33.9195 6.8ZM30.7875 8.6L30.5384 9.03351L30.7875 9.17669L31.0367 9.03351L30.7875 8.6ZM27.6555 6.8L27.4064 6.36649L26.6521 6.8L27.4064 7.23351L27.6555 6.8ZM30.7875 5L31.0367 4.56649L30.7875 4.42331L30.5384 4.56649L30.7875 5ZM30.7875 8.6H31.2875V8.31066L31.0367 8.16649L30.7875 8.6ZM30.7875 30.2L30.5384 30.6335L31.2875 31.064V30.2H30.7875ZM27.6555 28.4H27.1555V28.6893L27.4064 28.8335L27.6555 28.4ZM27.6555 6.8L27.9047 6.36649L27.1555 5.93595V6.8H27.6555ZM30.7875 30.2L31.0374 30.6331L31.7895 30.1992L31.0367 29.7665L30.7875 30.2ZM26.1075 32.9L25.8584 33.3335L26.108 33.477L26.3574 33.3331L26.1075 32.9ZM22.9755 31.1L22.7257 30.6669L21.9735 31.1008L22.7264 31.5335L22.9755 31.1ZM27.6555 28.4L27.9047 27.9665L27.6551 27.823L27.4057 27.9669L27.6555 28.4ZM22.9755 16.7H23.4755V16.4123L23.2268 16.2677L22.9755 16.7ZM23.9115 36.68L23.6617 37.1131L24.1628 36.2477L23.9115 36.68ZM20.8155 34.88L21.0668 34.4477L21.0654 34.4469L20.8155 34.88ZM19.8795 14.9L20.1308 14.4677L19.3795 14.0309V14.9H19.8795ZM25.1715 12.92L24.9224 13.3535L25.4214 12.4869L25.1715 12.92ZM22.9755 13.1L22.7275 12.6659L22.7251 12.6672L22.9755 13.1ZM15.1995 17.6L14.9504 18.0335L15.2004 18.1772L15.45 18.0328L15.1995 17.6ZM12.0675 15.8L11.818 15.3667L11.065 15.8005L11.8184 16.2335L12.0675 15.8ZM19.8795 11.3L20.1291 11.7333L20.133 11.731L19.8795 11.3ZM22.0395 11.12L21.7897 11.5531L21.7904 11.5535L22.0395 11.12ZM15.1995 17.6H15.6995V17.3107L15.4487 17.1665L15.1995 17.6ZM15.1995 42.8L14.9504 43.2335L15.6995 43.664V42.8H15.1995ZM12.0675 41H11.5675V41.2893L11.8184 41.4335L12.0675 41ZM12.0675 15.8L12.3167 15.3665L11.5675 14.9359V15.8H12.0675ZM22.9755 13.1L23.2236 13.5341C23.9692 13.108 24.5034 13.1118 24.9217 13.3531L25.1715 12.92L25.4214 12.4869C24.5917 12.0082 23.6618 12.132 22.7275 12.6659L22.9755 13.1ZM25.1715 12.92L24.9217 13.3531C25.3401 13.5945 25.6075 14.051 25.6075 14.9H26.1075H26.6075C26.6075 13.829 26.251 12.9655 25.4214 12.4869L25.1715 12.92ZM26.1075 14.9H25.6075V32.9H26.1075H26.6075V14.9H26.1075ZM26.1075 32.9L26.3574 33.3331L31.0374 30.6331L30.7875 30.2L30.5377 29.7669L25.8577 32.4669L26.1075 32.9ZM30.7875 30.2H31.2875V8.6H30.7875H30.2875V30.2H30.7875ZM30.7875 8.6L31.0367 9.03351L34.1687 7.23351L33.9195 6.8L33.6704 6.36649L30.5384 8.16649L30.7875 8.6ZM33.9195 6.8H33.4195V32H33.9195H34.4195V6.8H33.9195ZM33.9195 32L33.67 31.5667L25.858 36.0667L26.1075 36.5L26.3571 36.9333L34.1691 32.4333L33.9195 32ZM26.1075 36.5L25.854 36.069C25.142 36.4879 24.6037 36.4926 24.1544 36.2429L23.9115 36.68L23.6687 37.1171C24.5153 37.5874 25.4411 37.4721 26.361 36.931L26.1075 36.5ZM23.9115 36.68L24.1614 36.2469C23.743 36.0055 23.4755 35.549 23.4755 34.7H22.9755H22.4755C22.4755 35.771 22.8321 36.6345 23.6617 37.1131L23.9115 36.68ZM22.9755 34.7H23.4755V16.7H22.9755H22.4755V34.7H22.9755ZM22.9755 16.7L22.7242 16.2677L18.0802 18.9677L18.3315 19.4L18.5828 19.8323L23.2268 17.1323L22.9755 16.7ZM18.3315 19.4H17.8315V41H18.3315H18.8315V19.4H18.3315ZM18.3315 41L18.0824 40.5665L14.9504 42.3665L15.1995 42.8L15.4487 43.2335L18.5807 41.4335L18.3315 41ZM15.1995 42.8H15.6995V17.6H15.1995H14.6995V42.8H15.1995ZM15.1995 17.6L15.45 18.0328L23.226 13.5328L22.9755 13.1L22.7251 12.6672L14.9491 17.1672L15.1995 17.6ZM33.9195 6.8L33.6704 6.36649L30.5384 8.16649L30.7875 8.6L31.0367 9.03351L34.1687 7.23351L33.9195 6.8ZM30.7875 8.6L31.0367 8.16649L27.9047 6.36649L27.6555 6.8L27.4064 7.23351L30.5384 9.03351L30.7875 8.6ZM27.6555 6.8L27.9047 7.23351L31.0367 5.43351L30.7875 5L30.5384 4.56649L27.4064 6.36649L27.6555 6.8ZM30.7875 5L30.5384 5.43351L33.6704 7.23351L33.9195 6.8L34.1687 6.36649L31.0367 4.56649L30.7875 5ZM30.7875 8.6H30.2875V30.2H30.7875H31.2875V8.6H30.7875ZM30.7875 30.2L31.0367 29.7665L27.9047 27.9665L27.6555 28.4L27.4064 28.8335L30.5384 30.6335L30.7875 30.2ZM27.6555 28.4H28.1555V6.8H27.6555H27.1555V28.4H27.6555ZM27.6555 6.8L27.4064 7.23351L30.5384 9.03351L30.7875 8.6L31.0367 8.16649L27.9047 6.36649L27.6555 6.8ZM30.7875 30.2L30.5377 29.7669L25.8577 32.4669L26.1075 32.9L26.3574 33.3331L31.0374 30.6331L30.7875 30.2ZM26.1075 32.9L26.3567 32.4665L23.2247 30.6665L22.9755 31.1L22.7264 31.5335L25.8584 33.3335L26.1075 32.9ZM22.9755 31.1L23.2254 31.5331L27.9054 28.8331L27.6555 28.4L27.4057 27.9669L22.7257 30.6669L22.9755 31.1ZM27.6555 28.4L27.4064 28.8335L30.5384 30.6335L30.7875 30.2L31.0367 29.7665L27.9047 27.9665L27.6555 28.4ZM22.9755 16.7H22.4755V34.7H22.9755H23.4755V16.7H22.9755ZM22.9755 34.7H22.4755C22.4755 35.771 22.8321 36.6345 23.6617 37.1131L23.9115 36.68L24.1614 36.2469C23.743 36.0055 23.4755 35.549 23.4755 34.7H22.9755ZM23.9115 36.68L24.1628 36.2477L21.0668 34.4477L20.8155 34.88L20.5642 35.3123L23.6602 37.1123L23.9115 36.68ZM20.8155 34.88L21.0654 34.4469C20.647 34.2055 20.3795 33.749 20.3795 32.9H19.8795H19.3795C19.3795 33.971 19.7361 34.8345 20.5657 35.3131L20.8155 34.88ZM19.8795 32.9H20.3795V14.9H19.8795H19.3795V32.9H19.8795ZM19.8795 14.9L19.6282 15.3323L22.7242 17.1323L22.9755 16.7L23.2268 16.2677L20.1308 14.4677L19.8795 14.9ZM25.1715 12.92L25.4214 12.4869C24.5917 12.0082 23.6618 12.132 22.7275 12.6659L22.9755 13.1L23.2236 13.5341C23.9692 13.108 24.5034 13.1118 24.9217 13.3531L25.1715 12.92ZM22.9755 13.1L22.7251 12.6672L14.9491 17.1672L15.1995 17.6L15.45 18.0328L23.226 13.5328L22.9755 13.1ZM15.1995 17.6L15.4487 17.1665L12.3167 15.3665L12.0675 15.8L11.8184 16.2335L14.9504 18.0335L15.1995 17.6ZM12.0675 15.8L12.3171 16.2333L20.1291 11.7333L19.8795 11.3L19.63 10.8667L11.818 15.3667L12.0675 15.8ZM19.8795 11.3L20.133 11.731C20.8498 11.3093 21.3707 11.3114 21.7897 11.5531L22.0395 11.12L22.2894 10.6869C21.4603 10.2086 20.5412 10.3307 19.626 10.869L19.8795 11.3ZM22.0395 11.12L21.7904 11.5535L24.9224 13.3535L25.1715 12.92L25.4207 12.4865L22.2887 10.6865L22.0395 11.12ZM15.1995 17.6H14.6995V42.8H15.1995H15.6995V17.6H15.1995ZM15.1995 42.8L15.4487 42.3665L12.3167 40.5665L12.0675 41L11.8184 41.4335L14.9504 43.2335L15.1995 42.8ZM12.0675 41H12.5675V15.8H12.0675H11.5675V41H12.0675ZM12.0675 15.8L11.8184 16.2335L14.9504 18.0335L15.1995 17.6L15.4487 17.1665L12.3167 15.3665L12.0675 15.8Z" fill="black" mask="url(#path-3-outside-1_9_43)"/>
<path d="M62.44 36.384C61.2453 36.384 60.1893 36.1173 59.272 35.584C58.376 35.0293 57.672 34.2827 57.16 33.344C56.648 32.4053 56.392 31.3493 56.392 30.176V19.008C56.392 18.432 56.2533 17.9093 55.976 17.44C55.6987 16.9707 55.3253 16.5973 54.856 16.32C54.3867 16.0427 53.8747 15.904 53.32 15.904C52.7653 15.904 52.2533 16.0427 51.784 16.32C51.336 16.5973 50.9733 16.9707 50.696 17.44C50.44 17.9093 50.312 18.432 50.312 19.008V36H47.24V19.424C47.24 18.2507 47.496 17.1947 48.008 16.256C48.52 15.3173 49.2347 14.5813 50.152 14.048C51.0693 13.4933 52.1253 13.216 53.32 13.216C54.536 13.216 55.6027 13.4933 56.52 14.048C57.4373 14.5813 58.152 15.3173 58.664 16.256C59.176 17.1947 59.432 18.2507 59.432 19.424V30.592C59.432 31.168 59.5707 31.6907 59.848 32.16C60.1253 32.6293 60.488 33.0027 60.936 33.28C61.4053 33.5573 61.9067 33.696 62.44 33.696C62.9733 33.696 63.464 33.5573 63.912 33.28C64.36 33.0027 64.712 32.6293 64.968 32.16C65.2453 31.6907 65.384 31.168 65.384 30.592V13.6H68.456V30.176C68.456 31.3493 68.2 32.4053 67.688 33.344C67.176 34.2827 66.472 35.0293 65.576 35.584C64.68 36.1173 63.6347 36.384 62.44 36.384ZM70.7515 36L78.3675 15.744C78.7088 14.8693 79.1782 14.2293 79.7755 13.824C80.3728 13.4187 81.0662 13.216 81.8555 13.216C82.6448 13.216 83.3382 13.4187 83.9355 13.824C84.5542 14.208 85.0235 14.8373 85.3435 15.712L92.9915 36H89.6315L87.6795 30.592H75.9675L73.9835 36H70.7515ZM76.9275 27.872H86.7515L82.7515 16.768C82.6448 16.4907 82.5275 16.2773 82.3995 16.128C82.2715 15.9787 82.0902 15.904 81.8555 15.904C81.6422 15.904 81.4715 15.9787 81.3435 16.128C81.2155 16.2773 81.1088 16.4907 81.0235 16.768L76.9275 27.872ZM95.0258 36V13.6H104.85C106.258 13.6 107.538 13.9093 108.69 14.528C109.842 15.1253 110.759 15.9787 111.442 17.088C112.124 18.176 112.466 19.456 112.466 20.928C112.466 22.4213 112.082 23.744 111.314 24.896C110.567 26.0267 109.554 26.8693 108.274 27.424L110.674 32.288C110.844 32.6293 111.026 32.8853 111.218 33.056C111.431 33.2053 111.73 33.28 112.114 33.28H113.714V36H111.634C110.802 36 110.066 35.7867 109.426 35.36C108.807 34.9333 108.295 34.3573 107.89 33.632L105.202 28.16C104.988 28.1813 104.754 28.2027 104.498 28.224C104.263 28.224 104.018 28.224 103.762 28.224H98.0978V36H95.0258ZM98.0978 25.504H104.434C105.351 25.504 106.183 25.3227 106.93 24.96C107.698 24.5973 108.295 24.0747 108.722 23.392C109.17 22.7093 109.394 21.888 109.394 20.928C109.394 19.9467 109.17 19.1147 108.722 18.432C108.274 17.7493 107.676 17.2267 106.93 16.864C106.183 16.5013 105.362 16.32 104.466 16.32H98.0978V25.504ZM125.513 36.384C123.785 36.384 122.249 36.0213 120.905 35.296C119.561 34.5707 118.505 33.5253 117.737 32.16C116.991 30.7947 116.617 29.184 116.617 27.328V13.6H119.689V27.648C119.689 28.736 119.924 29.7387 120.393 30.656C120.863 31.5733 121.535 32.3093 122.409 32.864C123.284 33.3973 124.319 33.664 125.513 33.664C126.708 33.664 127.743 33.3973 128.617 32.864C129.492 32.3093 130.153 31.5733 130.601 30.656C131.071 29.7387 131.305 28.736 131.305 27.648V13.6H134.377V27.328C134.377 29.184 133.993 30.7947 133.225 32.16C132.479 33.5253 131.433 34.5707 130.089 35.296C128.767 36.0213 127.241 36.384 125.513 36.384ZM136.783 36L144.399 15.744C144.74 14.8693 145.209 14.2293 145.807 13.824C146.404 13.4187 147.097 13.216 147.887 13.216C148.676 13.216 149.369 13.4187 149.967 13.824C150.585 14.208 151.055 14.8373 151.375 15.712L159.023 36H155.663L153.711 30.592H141.999L140.015 36H136.783ZM142.959 27.872H152.783L148.783 16.768C148.676 16.4907 148.559 16.2773 148.431 16.128C148.303 15.9787 148.121 15.904 147.887 15.904C147.673 15.904 147.503 15.9787 147.375 16.128C147.247 16.2773 147.14 16.4907 147.055 16.768L142.959 27.872Z" fill="black"/>
</svg>
